<svg width="362" height="144" viewBox="0 0 362 144" fill="none" xmlns="http://www.w3.org/2000/svg">
<g filter="url(#filter0_d_208_26)">
<rect x="56" y="51" width="250" height="55" rx="27.5" fill="url(#paint0_linear_208_26)" fill-opacity="0.79" shape-rendering="crispEdges"/>
<rect x="56.5591" y="51.5591" width="248.882" height="53.8819" rx="26.9409" stroke="url(#paint1_linear_208_26)" stroke-opacity="0.49" stroke-width="1.11813" shape-rendering="crispEdges"/>
<path d="M134.12 86.1968C133.251 86.1968 132.472 86.0984 131.783 85.9016C131.094 85.7048 130.504 85.3932 130.012 84.9669C129.52 84.5241 129.135 83.9665 128.856 83.2941C128.577 82.6054 128.421 81.7854 128.388 80.8343H130.996C131.061 81.4082 131.201 81.9248 131.414 82.384C131.627 82.8268 131.947 83.1793 132.373 83.4417C132.816 83.6877 133.39 83.8107 134.095 83.8107C134.817 83.8107 135.374 83.6631 135.768 83.3679C136.162 83.0563 136.44 82.6464 136.604 82.138C136.785 81.6132 136.875 81.0228 136.875 80.3669V68.6087H139.482V79.9487C139.482 80.8835 139.384 81.7362 139.187 82.507C138.99 83.2777 138.679 83.9419 138.252 84.4995C137.826 85.0406 137.269 85.4588 136.58 85.754C135.907 86.0492 135.087 86.1968 134.12 86.1968ZM150.807 86.1968C149.02 86.1968 147.503 85.8196 146.257 85.0652C145.027 84.2945 144.092 83.2367 143.452 81.892C142.813 80.5473 142.493 79.0221 142.493 77.3166C142.493 75.5947 142.813 74.0614 143.452 72.7167C144.092 71.3719 145.035 70.3224 146.281 69.568C147.527 68.7973 149.044 68.4119 150.832 68.4119C152.636 68.4119 154.153 68.7891 155.383 69.5434C156.613 70.2978 157.547 71.3473 158.187 72.6921C158.826 74.0368 159.146 75.5701 159.146 77.292C159.146 78.9975 158.826 80.5227 158.187 81.8674C157.547 83.2121 156.604 84.2699 155.358 85.0406C154.128 85.8114 152.611 86.1968 150.807 86.1968ZM150.832 83.8107C152.144 83.8107 153.218 83.5073 154.054 82.9006C154.891 82.2938 155.506 81.4984 155.899 80.5145C156.293 79.5305 156.49 78.4646 156.49 77.3166C156.49 76.4475 156.375 75.6193 156.145 74.8322C155.932 74.045 155.596 73.348 155.137 72.7413C154.677 72.1345 154.087 71.6589 153.366 71.3145C152.644 70.9701 151.799 70.798 150.832 70.798C149.536 70.798 148.462 71.1013 147.609 71.7081C146.773 72.3149 146.15 73.1102 145.74 74.0942C145.33 75.0781 145.125 76.1523 145.125 77.3166C145.125 78.4646 145.322 79.5305 145.715 80.5145C146.125 81.4984 146.748 82.2938 147.585 82.9006C148.438 83.5073 149.52 83.8107 150.832 83.8107ZM162.262 86V68.6087H164.869V86H162.262ZM168.964 86V68.6087H171.99L180.722 82.1872V68.6087H183.305V86H180.353L171.571 72.4953V86H168.964ZM194.139 86V68.6087H197.165L205.897 82.1872V68.6087H208.48V86H205.528L196.747 72.4953V86H194.139ZM219.919 86.1968C218.132 86.1968 216.615 85.8196 215.368 85.0652C214.139 84.2945 213.204 83.2367 212.564 81.892C211.925 80.5473 211.605 79.0221 211.605 77.3166C211.605 75.5947 211.925 74.0614 212.564 72.7167C213.204 71.3719 214.147 70.3224 215.393 69.568C216.639 68.7973 218.156 68.4119 219.944 68.4119C221.748 68.4119 223.265 68.7891 224.495 69.5434C225.725 70.2978 226.659 71.3473 227.299 72.6921C227.938 74.0368 228.258 75.5701 228.258 77.292C228.258 78.9975 227.938 80.5227 227.299 81.8674C226.659 83.2121 225.716 84.2699 224.47 85.0406C223.24 85.8114 221.723 86.1968 219.919 86.1968ZM219.944 83.8107C221.256 83.8107 222.33 83.5073 223.166 82.9006C224.003 82.2938 224.618 81.4984 225.011 80.5145C225.405 79.5305 225.602 78.4646 225.602 77.3166C225.602 76.4475 225.487 75.6193 225.257 74.8322C225.044 74.045 224.708 73.348 224.249 72.7413C223.789 72.1345 223.199 71.6589 222.478 71.3145C221.756 70.9701 220.911 70.798 219.944 70.798C218.648 70.798 217.574 71.1013 216.721 71.7081C215.885 72.3149 215.262 73.1102 214.852 74.0942C214.442 75.0781 214.237 76.1523 214.237 77.3166C214.237 78.4646 214.434 79.5305 214.827 80.5145C215.237 81.4984 215.86 82.2938 216.697 82.9006C217.55 83.5073 218.632 83.8107 219.944 83.8107ZM234.034 86L229.458 68.6087H232.386L236.026 83.4909L239.593 68.6087H243.308L246.85 83.4909L250.49 68.6087H253.27L248.719 86H244.931L241.389 71.3637L237.847 86H234.034Z" fill="white"/>
<g filter="url(#filter1_d_208_26)">
<path d="M81.6953 86.1372L90.7284 65.9341C91.2545 64.7575 92.423 64 93.7119 64C94.9973 64 96.1592 64.7657 96.6662 65.9469L105.416 86.3307C105.789 87.2007 105.792 88.1853 105.424 89.0577C104.988 90.0933 104.078 90.8546 102.982 91.1023L102.522 91.2064C101.486 91.4404 100.4 91.2921 99.4652 90.7888L95.5546 88.6841C94.4003 88.0628 93.0149 88.0466 91.8464 88.6406L86.7977 91.2068C85.8096 91.7091 84.6487 91.7436 83.6325 91.3008C82.7586 90.9201 82.0647 90.2178 81.6944 89.3394L81.6617 89.262C81.2396 88.2607 81.2518 87.1292 81.6953 86.1372Z" fill="white"/>
<path d="M81.9708 89.2229L81.6952 89.339L81.9708 89.2229L81.9382 89.1455C81.5483 88.2208 81.5596 87.1758 81.9692 86.2596L91.0023 66.0566C91.4801 64.988 92.5413 64.3 93.7119 64.3C94.8773 64.3 95.9308 64.9942 96.3905 66.0652L105.14 86.449C105.481 87.2441 105.484 88.1439 105.148 88.9412C104.749 89.8876 103.918 90.5833 102.916 90.8096L102.455 90.9137C101.49 91.1318 100.479 90.9936 99.6074 90.5246L95.6968 88.4199C94.4559 87.7521 92.9666 87.7346 91.7104 88.3731L86.6618 90.9394C85.7535 91.4011 84.6864 91.4328 83.7523 91.0258C82.9491 90.6758 82.3112 90.0303 81.9708 89.2229Z" stroke="url(#paint2_linear_208_26)" stroke-width="0.6" style="mix-blend-mode:overlay"/>
</g>
</g>
<mask id="mask0_208_26" style="mask-type:alpha" maskUnits="userSpaceOnUse" x="9" y="60" width="343" height="40">
<g clip-path="url(#clip0_208_26)">
<path d="M36.0079 60H352V80L324.992 100H9V80L36.0079 60Z" fill="black"/>
</g>
</mask>
<g mask="url(#mask0_208_26)">
<path d="M9 60H346C349.314 60 352 62.6863 352 66V117H15C11.6863 117 9 114.314 9 111V60Z" fill="#5AFF88"/>
</g>
<defs>
<filter id="filter0_d_208_26" x="0.0936761" y="0.684308" width="361.813" height="166.813" filterUnits="userSpaceOnUse" color-interpolation-filters="sRGB">
<feFlood flood-opacity="0" result="BackgroundImageFix"/>
<feColorMatrix in="SourceAlpha" type="matrix" values="0 0 0 0 0 0 0 0 0 0 0 0 0 0 0 0 0 0 127 0" result="hardAlpha"/>
<feMorphology radius="5.59063" operator="erode" in="SourceAlpha" result="effect1_dropShadow_208_26"/>
<feOffset dy="5.59063"/>
<feGaussianBlur stdDeviation="30.7485"/>
<feComposite in2="hardAlpha" operator="out"/>
<feColorMatrix type="matrix" values="0 0 0 0 0.101961 0 0 0 0 0.964706 0 0 0 0 0.345098 0 0 0 0.35 0"/>
<feBlend mode="normal" in2="BackgroundImageFix" result="effect1_dropShadow_208_26"/>
<feBlend mode="normal" in="SourceGraphic" in2="effect1_dropShadow_208_26" result="shape"/>
</filter>
<filter id="filter1_d_208_26" x="75.3537" y="61" width="36.3443" height="39.6098" filterUnits="userSpaceOnUse" color-interpolation-filters="sRGB">
<feFlood flood-opacity="0" result="BackgroundImageFix"/>
<feColorMatrix in="SourceAlpha" type="matrix" values="0 0 0 0 0 0 0 0 0 0 0 0 0 0 0 0 0 0 127 0" result="hardAlpha"/>
<feOffset dy="3"/>
<feGaussianBlur stdDeviation="3"/>
<feComposite in2="hardAlpha" operator="out"/>
<feColorMatrix type="matrix" values="0 0 0 0 0.05625 0 0 0 0 0.0967361 0 0 0 0 0.166667 0 0 0 1 0"/>
<feBlend mode="normal" in2="BackgroundImageFix" result="effect1_dropShadow_208_26"/>
<feBlend mode="normal" in="SourceGraphic" in2="effect1_dropShadow_208_26" result="shape"/>
</filter>
<linearGradient id="paint0_linear_208_26" x1="181" y1="51" x2="181" y2="106" gradientUnits="userSpaceOnUse">
<stop stop-color="#1AF658"/>
<stop offset="1" stop-color="#A6F2BB"/>
</linearGradient>
<linearGradient id="paint1_linear_208_26" x1="181" y1="51" x2="181" y2="106" gradientUnits="userSpaceOnUse">
<stop stop-color="white"/>
<stop offset="1" stop-color="white" stop-opacity="0.4"/>
</linearGradient>
<linearGradient id="paint2_linear_208_26" x1="93.5" y1="64" x2="93.5" y2="92" gradientUnits="userSpaceOnUse">
<stop stop-color="white"/>
<stop offset="1" stop-color="white" stop-opacity="0"/>
</linearGradient>
<clipPath id="clip0_208_26">
<rect width="343" height="40" fill="white" transform="translate(9 60)"/>
</clipPath>
</defs>
</svg>
