<svg width="101" height="19" viewBox="0 0 101 19" fill="none" xmlns="http://www.w3.org/2000/svg">
<g id="h-lightbg 1" clip-path="url(#clip0_0_168)">
<path id="Vector" d="M8.20616 15.8349H0V3.40134H1.91832V14.0765H8.20616V15.8349Z" fill="white"/>
<path id="Vector_2" d="M13.2331 16.0836C12.4042 16.0836 11.6286 15.9059 10.9063 15.5507C10.184 15.1836 9.60373 14.6508 9.1656 13.9521C8.72746 13.2416 8.50839 12.4009 8.50839 11.4299C8.50839 10.4589 8.72746 9.62404 9.1656 8.92539C9.60373 8.2149 10.184 7.68202 10.9063 7.32678C11.6286 6.95971 12.4042 6.77615 13.2331 6.77615C14.0502 6.77615 14.8199 6.95971 15.5422 7.32678C16.2646 7.68202 16.8448 8.2149 17.2829 8.92539C17.7211 9.62404 17.9401 10.4589 17.9401 11.4299C17.9401 12.4009 17.7211 13.2416 17.2829 13.9521C16.8448 14.6508 16.2646 15.1836 15.5422 15.5507C14.8199 15.9059 14.0502 16.0836 13.2331 16.0836ZM13.2331 14.3962C13.7423 14.3962 14.216 14.2777 14.6541 14.0409C15.0923 13.7922 15.4357 13.4429 15.6843 12.9929C15.9448 12.543 16.0751 12.0219 16.0751 11.4299C16.0751 10.8378 15.9448 10.3168 15.6843 9.86679C15.4357 9.4168 15.0923 9.07341 14.6541 8.83658C14.216 8.58791 13.7423 8.46357 13.2331 8.46357C12.7121 8.46357 12.2325 8.58791 11.7944 8.83658C11.3681 9.07341 11.0247 9.4168 10.7642 9.86679C10.5037 10.3168 10.3734 10.8378 10.3734 11.4299C10.3734 12.0219 10.5037 12.543 10.7642 12.9929C11.0247 13.4429 11.3681 13.7922 11.7944 14.0409C12.2325 14.2777 12.7121 14.3962 13.2331 14.3962Z" fill="white"/>
<path id="Vector_3" d="M23.6325 16.0836C22.8035 16.0836 22.0278 15.9059 21.3055 15.5507C20.5833 15.1836 20.0029 14.6508 19.5648 13.9521C19.1267 13.2416 18.9076 12.4009 18.9076 11.4299C18.9076 10.4589 19.1267 9.62404 19.5648 8.92539C20.0029 8.2149 20.5833 7.68202 21.3055 7.32678C22.0278 6.95971 22.8035 6.77615 23.6325 6.77615C24.4495 6.77615 25.2191 6.95971 25.9415 7.32678C26.6638 7.68202 27.244 8.2149 27.6822 8.92539C28.1204 9.62404 28.3394 10.4589 28.3394 11.4299C28.3394 12.4009 28.1204 13.2416 27.6822 13.9521C27.244 14.6508 26.6638 15.1836 25.9415 15.5507C25.2191 15.9059 24.4495 16.0836 23.6325 16.0836ZM23.6325 14.3962C24.1416 14.3962 24.6152 14.2777 25.0534 14.0409C25.4915 13.7922 25.8349 13.4429 26.0835 12.9929C26.344 12.543 26.4742 12.0219 26.4742 11.4299C26.4742 10.8378 26.344 10.3168 26.0835 9.86679C25.8349 9.4168 25.4915 9.07341 25.0534 8.83658C24.6152 8.58791 24.1416 8.46357 23.6325 8.46357C23.1114 8.46357 22.6317 8.58791 22.1936 8.83658C21.7673 9.07341 21.424 9.4168 21.1634 9.86679C20.9029 10.3168 20.7727 10.8378 20.7727 11.4299C20.7727 12.0219 20.9029 12.543 21.1634 12.9929C21.424 13.4429 21.7673 13.7922 22.1936 14.0409C22.6317 14.2777 23.1114 14.3962 23.6325 14.3962Z" fill="white"/>
<path id="Vector_4" d="M31.6868 15.8346H29.8397V3.401H31.6868V10.0263L34.7421 7.02452H37.0333L33.854 10.1329L37.513 15.8346H35.4169L32.5573 11.394L31.6868 12.2466V15.8346Z" fill="white"/>
<path id="Vector_5" d="M41.5865 16.0836C40.6036 16.0836 39.7866 15.8408 39.1353 15.3553C38.4957 14.8698 38.0162 14.2422 37.6964 13.4725L39.1886 12.5489C39.3897 13.1646 39.6976 13.6501 40.1121 14.0054C40.5266 14.3606 41.0298 14.5383 41.6219 14.5383C42.0956 14.5383 42.4863 14.4258 42.7943 14.2008C43.1139 13.964 43.2738 13.6561 43.2738 13.2771C43.2738 12.9219 43.108 12.6436 42.7764 12.4423C42.4568 12.2292 41.9357 12.0575 41.2133 11.9272C40.3015 11.7496 39.5674 11.4417 39.0109 11.0036C38.4662 10.5654 38.1937 9.97336 38.1937 9.22735C38.1937 8.46948 38.4957 7.87149 39.0996 7.43336C39.7155 6.99522 40.4674 6.77615 41.3555 6.77615C42.2673 6.77615 43.0015 6.95971 43.558 7.32678C44.1145 7.68202 44.5585 8.22673 44.8901 8.96092L43.5401 9.76021C43.339 9.25103 43.0489 8.86026 42.6699 8.58791C42.3028 8.30371 41.8766 8.16161 41.391 8.16161C40.9411 8.16161 40.5679 8.25042 40.272 8.42804C39.976 8.59383 39.8279 8.83658 39.8279 9.1563C39.8279 9.4997 40.0114 9.78389 40.3785 10.0089C40.7575 10.2339 41.314 10.4174 42.0482 10.5595C43.0428 10.7608 43.777 11.0746 44.2508 11.5009C44.7362 11.9154 44.9791 12.4897 44.9791 13.2239C44.9791 13.7449 44.8427 14.2244 44.5705 14.6626C44.3099 15.1007 43.9192 15.45 43.3981 15.7106C42.8889 15.9592 42.285 16.0836 41.5865 16.0836Z" fill="white"/>
<path id="Vector_6" d="M46.6015 15.8349V3.40134H51.717C52.5816 3.40134 53.3275 3.54936 53.9551 3.84541C54.5946 4.1296 55.08 4.53812 55.4116 5.07101C55.755 5.60387 55.9268 6.21371 55.9268 6.90051C55.9268 7.81229 55.6721 8.57016 55.1631 9.17407C54.6538 9.76614 53.9374 10.1924 53.0137 10.453L56.0688 15.8349H53.9018L50.9356 10.6306H48.5199V15.8349H46.6015ZM51.6283 8.94317C52.4098 8.94317 53.0019 8.78331 53.4045 8.46358C53.8072 8.13202 54.0084 7.64652 54.0084 7.00709C54.0084 6.37948 53.8072 5.90583 53.4045 5.5861C53.0019 5.25454 52.4098 5.08875 51.6283 5.08875H48.5199V8.94317H51.6283Z" fill="white"/>
<path id="Vector_7" d="M59.7969 16.0836C58.9206 16.0836 58.2101 15.8349 57.6654 15.3376C57.1207 14.8284 56.8484 14.1653 56.8484 13.3482C56.8484 12.5193 57.1326 11.868 57.7008 11.3943C58.2812 10.9207 59.0212 10.6128 59.9211 10.4707L62.7276 10.0266V9.6714C62.7276 9.16222 62.5678 8.77736 62.2481 8.51685C61.9402 8.25635 61.4903 8.12609 60.8981 8.12609C60.3179 8.12609 59.8619 8.2445 59.5303 8.48133C59.2107 8.70632 59.0508 8.99051 59.0508 9.33392C59.0508 9.4168 59.0628 9.49378 59.0863 9.56482L57.4699 10.1155C57.3753 9.89047 57.3279 9.64772 57.3279 9.3872C57.3279 8.92539 57.4701 8.4991 57.7541 8.10833C58.0503 7.70572 58.4706 7.38599 59.0154 7.14916C59.5601 6.9005 60.1877 6.77615 60.8981 6.77615C62.0822 6.77615 62.9881 7.03667 63.6157 7.5577C64.2552 8.07873 64.5749 8.83658 64.5749 9.83125V13.6501C64.5749 14.1475 64.6163 14.556 64.6993 14.8757C64.7822 15.1836 64.93 15.5033 65.1434 15.8349H63.2782C62.9586 15.4204 62.7987 14.8994 62.7987 14.2718C62.5263 14.8402 62.1178 15.2843 61.5731 15.604C61.0401 15.9237 60.4482 16.0836 59.7969 16.0836ZM60.1877 14.556C60.9455 14.556 61.5553 14.2837 62.0172 13.7389C62.4908 13.1824 62.7276 12.4719 62.7276 11.6075V11.3588L60.3297 11.7674C59.785 11.8621 59.3646 12.0338 59.0686 12.2825C58.7844 12.5311 58.6422 12.8568 58.6422 13.2594C58.6422 13.662 58.7786 13.9817 59.0508 14.2185C59.335 14.4435 59.7141 14.556 60.1877 14.556Z" fill="white"/>
<path id="Vector_8" d="M66.5103 15.8349V7.02484H68.3577V8.51685C68.5945 7.98399 68.9261 7.56362 69.3523 7.25574C69.7905 6.93601 70.2819 6.77615 70.8267 6.77615C71.0872 6.77615 71.3416 6.81169 71.5904 6.88273L71.2884 8.58791C71.0635 8.50502 70.8267 8.46357 70.5779 8.46357C69.9266 8.46357 69.3938 8.74185 68.9794 9.2984C68.5649 9.84311 68.3577 10.5181 68.3577 11.3233V15.8349H66.5103Z" fill="white"/>
<path id="Vector_9" d="M76.1865 16.0836C75.3812 16.0836 74.6351 15.8882 73.9484 15.4974C73.2734 15.1067 72.7345 14.556 72.332 13.8455C71.9295 13.135 71.7281 12.3298 71.7281 11.4299C71.7281 10.5299 71.9295 9.73061 72.332 9.03196C72.7345 8.32148 73.2793 7.77085 73.9662 7.38008C74.6647 6.97746 75.4345 6.77615 76.2752 6.77615C77.1159 6.77615 77.8561 6.96562 78.4955 7.34455C79.1467 7.71164 79.65 8.23267 80.0053 8.90762C80.3606 9.57074 80.5381 10.3286 80.5381 11.1812V11.8206H73.5043C73.5635 12.614 73.8418 13.2594 74.3392 13.7567C74.8365 14.2541 75.4641 14.5027 76.2219 14.5027C76.8732 14.5027 77.4121 14.3547 77.8383 14.0587C78.2645 13.7508 78.6257 13.3067 78.9219 12.7265L80.2717 13.508C79.8454 14.3725 79.3007 15.0178 78.6377 15.4441C77.9744 15.8704 77.1574 16.0836 76.1865 16.0836ZM78.7797 10.3819C78.7086 9.70693 78.4363 9.17999 77.9627 8.80104C77.489 8.41029 76.9087 8.2149 76.2219 8.2149C75.5589 8.2149 74.9846 8.42212 74.499 8.83658C74.0134 9.23918 73.6937 9.7543 73.5398 10.3819H78.7797Z" fill="white"/>
<path id="Vector_10" fill-rule="evenodd" clip-rule="evenodd" d="M92.169 10.7529C90.7757 10.7529 89.6453 9.62357 89.6453 8.22921C89.6453 6.83484 90.7757 5.70554 92.169 5.70554C93.5621 5.70554 94.6927 6.83486 94.6927 8.22921C94.6927 9.62357 93.5621 10.7529 92.169 10.7529ZM91.0717 8.22921C91.0717 8.83544 91.5631 9.32647 92.169 9.32647C92.7746 9.32647 93.2661 8.83544 93.2661 8.22921C93.2661 7.62297 92.7746 7.13197 92.169 7.13197C91.5631 7.13197 91.0717 7.62297 91.0717 8.22921Z" fill="#04CD58"/>
<path id="Vector_11" fill-rule="evenodd" clip-rule="evenodd" d="M84.0493 8.23254L88.8771 3.40131H95.4607L100.289 8.23254L92.169 16.3489L84.0493 8.23254ZM95.8996 6.47359C93.8482 4.41324 90.4895 4.41324 88.4383 6.47359L86.6827 8.22923L88.4383 9.98483C90.4895 12.0452 93.8482 12.0452 95.8996 9.98483L97.6551 8.22923L95.8996 6.47359Z" fill="#04CD58"/>
</g>
<defs>
<clipPath id="clip0_0_168">
<rect width="100.289" height="19" fill="white"/>
</clipPath>
</defs>
</svg>
